# xmcd
#
# Track frame offsets: 
#        150
#        26137
#        48162
#        66525
#        88300
#        107662
#        127400
#        155725
#        176625
#        199125
#        218450
#        239300
#
# Disc length: 3404 seconds
#
# Revision: 2
# Processed by: cddbd v1.5.2PL0 Copyright (c) Steve Scherf et al.
# Submitted via: ExactAudioCopy v1.0b1
#
DISCID=b40d4a0c
DTITLE=黄莺莺 - 最好的时光
DYEAR=1991
DGENRE=Pop
TTITLE0=让爱自由
TTITLE1=梦不到你
TTITLE2=留不住的故事
TTITLE3=心泣
TTITLE4=我不在乎
TTITLE5=爱，千年不醒
TTITLE6=来自心海的消息
TTITLE7=哭砂
TTITLE8=雪在烧
TTITLE9=日安我的爱
TTITLE10=现在流行什么
TTITLE11=熟悉的你
EXTD=
EXTT0=
EXTT1=
EXTT2=
EXTT3=
EXTT4=
EXTT5=
EXTT6=
EXTT7=
EXTT8=
EXTT9=
EXTT10=
EXTT11=
PLAYORDER=
